<mxfile host="65bd71144e">
    <diagram id="kOpV5S2BEfglIn-J8A7v" name="Page-1">
        <mxGraphModel dx="537" dy="798" grid="1" gridSize="10" guides="1" tooltips="1" connect="1" arrows="1" fold="1" page="1" pageScale="1" pageWidth="850" pageHeight="1100" math="0" shadow="0">
            <root>
                <mxCell id="0"/>
                <mxCell id="1" parent="0"/>
                <mxCell id="RZuOT6L9X6EHLq7gEgHx-15" style="edgeStyle=orthogonalEdgeStyle;rounded=0;orthogonalLoop=1;jettySize=auto;html=1;exitX=0.5;exitY=1;exitDx=0;exitDy=0;exitPerimeter=0;endArrow=classic;endFill=1;strokeWidth=3;entryX=1;entryY=0.5;entryDx=0;entryDy=0;entryPerimeter=0;" parent="1" source="RZuOT6L9X6EHLq7gEgHx-1" target="RZuOT6L9X6EHLq7gEgHx-4" edge="1">
                    <mxGeometry relative="1" as="geometry">
                        <mxPoint x="550" y="480" as="targetPoint"/>
                        <Array as="points">
                            <mxPoint x="241" y="480"/>
                            <mxPoint x="480" y="480"/>
                        </Array>
                    </mxGeometry>
                </mxCell>
                <mxCell id="RZuOT6L9X6EHLq7gEgHx-1" value="" style="pointerEvents=1;verticalLabelPosition=bottom;shadow=0;dashed=0;align=center;html=1;verticalAlign=top;shape=mxgraph.electrical.signal_sources.source;aspect=fixed;points=[[0.5,0,0],[1,0.5,0],[0.5,1,0],[0,0.5,0]];elSignalType=ac;strokeWidth=3;strokeColor=#FF3333;" parent="1" vertex="1">
                    <mxGeometry x="211" y="360" width="60" height="60" as="geometry"/>
                </mxCell>
                <mxCell id="RZuOT6L9X6EHLq7gEgHx-31" style="edgeStyle=orthogonalEdgeStyle;rounded=0;orthogonalLoop=1;jettySize=auto;html=1;exitX=0;exitY=0.5;exitDx=0;exitDy=0;exitPerimeter=0;entryX=0.5;entryY=0;entryDx=0;entryDy=0;entryPerimeter=0;fontSize=14;endArrow=classic;endFill=1;strokeWidth=2;" parent="1" source="RZuOT6L9X6EHLq7gEgHx-2" target="RZuOT6L9X6EHLq7gEgHx-1" edge="1">
                    <mxGeometry relative="1" as="geometry"/>
                </mxCell>
                <mxCell id="RZuOT6L9X6EHLq7gEgHx-2" value="" style="pointerEvents=1;verticalLabelPosition=bottom;shadow=0;dashed=0;align=center;html=1;verticalAlign=top;shape=mxgraph.electrical.capacitors.capacitor_1;fillColor=#dae8fc;strokeColor=#6c8ebf;strokeWidth=3;" parent="1" vertex="1">
                    <mxGeometry x="320" y="170" width="100" height="60" as="geometry"/>
                </mxCell>
                <mxCell id="RZuOT6L9X6EHLq7gEgHx-14" style="edgeStyle=orthogonalEdgeStyle;rounded=0;orthogonalLoop=1;jettySize=auto;html=1;exitX=0;exitY=0.645;exitDx=0;exitDy=0;exitPerimeter=0;endArrow=none;endFill=0;strokeWidth=3;" parent="1" source="RZuOT6L9X6EHLq7gEgHx-3" edge="1">
                    <mxGeometry relative="1" as="geometry">
                        <mxPoint x="240" y="314" as="targetPoint"/>
                    </mxGeometry>
                </mxCell>
                <mxCell id="RZuOT6L9X6EHLq7gEgHx-17" style="edgeStyle=orthogonalEdgeStyle;rounded=0;orthogonalLoop=1;jettySize=auto;html=1;endArrow=classic;endFill=1;strokeWidth=3;entryX=1;entryY=0.645;entryDx=0;entryDy=0;entryPerimeter=0;" parent="1" target="RZuOT6L9X6EHLq7gEgHx-3" edge="1">
                    <mxGeometry relative="1" as="geometry">
                        <mxPoint x="460" y="360" as="targetPoint"/>
                        <mxPoint x="480" y="314" as="sourcePoint"/>
                        <Array as="points">
                            <mxPoint x="430" y="314"/>
                            <mxPoint x="430" y="314"/>
                        </Array>
                    </mxGeometry>
                </mxCell>
                <mxCell id="RZuOT6L9X6EHLq7gEgHx-3" value="" style="pointerEvents=1;verticalLabelPosition=bottom;shadow=0;dashed=0;align=center;html=1;verticalAlign=top;shape=mxgraph.electrical.inductors.inductor_5;fillColor=#dae8fc;strokeColor=#6c8ebf;strokeWidth=3;" parent="1" vertex="1">
                    <mxGeometry x="320" y="305" width="100" height="14" as="geometry"/>
                </mxCell>
                <mxCell id="RZuOT6L9X6EHLq7gEgHx-16" style="edgeStyle=orthogonalEdgeStyle;rounded=0;orthogonalLoop=1;jettySize=auto;html=1;exitX=0;exitY=0.5;exitDx=0;exitDy=0;exitPerimeter=0;endArrow=classic;endFill=1;strokeWidth=3;entryX=1;entryY=0.5;entryDx=0;entryDy=0;entryPerimeter=0;" parent="1" source="RZuOT6L9X6EHLq7gEgHx-4" edge="1">
                    <mxGeometry relative="1" as="geometry">
                        <mxPoint x="421" y="199.9999999999999" as="targetPoint"/>
                        <Array as="points">
                            <mxPoint x="481" y="200"/>
                        </Array>
                    </mxGeometry>
                </mxCell>
                <mxCell id="RZuOT6L9X6EHLq7gEgHx-4" value="" style="pointerEvents=1;verticalLabelPosition=bottom;shadow=0;dashed=0;align=center;html=1;verticalAlign=top;shape=mxgraph.electrical.resistors.resistor_2;rotation=90;fillColor=#d5e8d4;strokeColor=#82b366;strokeWidth=3;" parent="1" vertex="1">
                    <mxGeometry x="431" y="380" width="100" height="20" as="geometry"/>
                </mxCell>
                <mxCell id="RZuOT6L9X6EHLq7gEgHx-20" value="&lt;font style=&quot;font-size: 16px&quot;&gt;R&lt;sub&gt;0&lt;/sub&gt;&lt;/font&gt;" style="text;html=1;strokeColor=none;fillColor=none;align=center;verticalAlign=middle;whiteSpace=wrap;rounded=0;" parent="1" vertex="1">
                    <mxGeometry x="501" y="380" width="60" height="30" as="geometry"/>
                </mxCell>
                <mxCell id="RZuOT6L9X6EHLq7gEgHx-21" value="&lt;font style=&quot;font-size: 16px&quot;&gt;C&lt;sub&gt;0&lt;/sub&gt;&lt;/font&gt;" style="text;html=1;strokeColor=none;fillColor=none;align=center;verticalAlign=middle;whiteSpace=wrap;rounded=0;" parent="1" vertex="1">
                    <mxGeometry x="340" y="140" width="60" height="30" as="geometry"/>
                </mxCell>
                <mxCell id="RZuOT6L9X6EHLq7gEgHx-22" value="&lt;div style=&quot;font-size: 16px&quot; align=&quot;center&quot;&gt;&lt;font style=&quot;font-size: 16px&quot;&gt;L&lt;sub&gt;0&lt;/sub&gt;&lt;/font&gt;&lt;/div&gt;" style="text;whiteSpace=wrap;html=1;align=center;" parent="1" vertex="1">
                    <mxGeometry x="350" y="276" width="40" height="30" as="geometry"/>
                </mxCell>
                <mxCell id="RZuOT6L9X6EHLq7gEgHx-23" value="" style="endArrow=classic;html=1;rounded=0;fontSize=16;strokeWidth=2;" parent="1" edge="1">
                    <mxGeometry width="50" height="50" relative="1" as="geometry">
                        <mxPoint x="310" y="334" as="sourcePoint"/>
                        <mxPoint x="430" y="334" as="targetPoint"/>
                    </mxGeometry>
                </mxCell>
                <mxCell id="RZuOT6L9X6EHLq7gEgHx-24" value="" style="endArrow=classic;html=1;rounded=0;fontSize=16;strokeWidth=2;" parent="1" edge="1">
                    <mxGeometry width="50" height="50" relative="1" as="geometry">
                        <mxPoint x="311" y="239.9999999999999" as="sourcePoint"/>
                        <mxPoint x="431" y="239.9999999999999" as="targetPoint"/>
                    </mxGeometry>
                </mxCell>
                <mxCell id="RZuOT6L9X6EHLq7gEgHx-25" value="&lt;font style=&quot;font-size: 14px&quot;&gt;v&lt;sub&gt;c&lt;/sub&gt;&lt;/font&gt;" style="text;whiteSpace=wrap;html=1;align=center;" parent="1" vertex="1">
                    <mxGeometry x="350" y="240" width="40" height="30" as="geometry"/>
                </mxCell>
                <mxCell id="RZuOT6L9X6EHLq7gEgHx-26" value="&lt;font style=&quot;font-size: 14px&quot;&gt;i&lt;sub&gt;c&lt;/sub&gt;&lt;/font&gt;" style="text;whiteSpace=wrap;html=1;align=center;" parent="1" vertex="1">
                    <mxGeometry x="427" y="171" width="40" height="30" as="geometry"/>
                </mxCell>
                <mxCell id="RZuOT6L9X6EHLq7gEgHx-27" value="&lt;font style=&quot;font-size: 14px&quot;&gt;i&lt;sub&gt;L&lt;/sub&gt;&lt;/font&gt;" style="text;whiteSpace=wrap;html=1;align=center;" parent="1" vertex="1">
                    <mxGeometry x="427" y="282" width="40" height="30" as="geometry"/>
                </mxCell>
                <mxCell id="RZuOT6L9X6EHLq7gEgHx-28" value="&lt;font style=&quot;font-size: 14px&quot;&gt;v&lt;sub&gt;L&lt;/sub&gt;&lt;/font&gt;" style="text;whiteSpace=wrap;html=1;align=center;" parent="1" vertex="1">
                    <mxGeometry x="350" y="335" width="40" height="30" as="geometry"/>
                </mxCell>
                <mxCell id="RZuOT6L9X6EHLq7gEgHx-29" value="i&lt;sub&gt;R&lt;/sub&gt;" style="text;whiteSpace=wrap;html=1;align=center;" parent="1" vertex="1">
                    <mxGeometry x="475" y="450" width="40" height="30" as="geometry"/>
                </mxCell>
                <mxCell id="RZuOT6L9X6EHLq7gEgHx-32" value="i&lt;sub&gt;G&lt;/sub&gt;" style="text;whiteSpace=wrap;html=1;align=center;" parent="1" vertex="1">
                    <mxGeometry x="206" y="319" width="40" height="30" as="geometry"/>
                </mxCell>
                <mxCell id="RZuOT6L9X6EHLq7gEgHx-33" value="" style="endArrow=classic;html=1;rounded=0;fontSize=16;strokeWidth=2;" parent="1" edge="1">
                    <mxGeometry width="50" height="50" relative="1" as="geometry">
                        <mxPoint x="460" y="332" as="sourcePoint"/>
                        <mxPoint x="460" y="452" as="targetPoint"/>
                    </mxGeometry>
                </mxCell>
                <mxCell id="RZuOT6L9X6EHLq7gEgHx-34" value="" style="endArrow=classic;html=1;rounded=0;fontSize=16;strokeWidth=2;" parent="1" edge="1">
                    <mxGeometry width="50" height="50" relative="1" as="geometry">
                        <mxPoint x="200" y="420" as="sourcePoint"/>
                        <mxPoint x="200" y="360" as="targetPoint"/>
                    </mxGeometry>
                </mxCell>
                <mxCell id="RZuOT6L9X6EHLq7gEgHx-35" value="V&lt;sub&gt;G&lt;/sub&gt;" style="text;whiteSpace=wrap;html=1;align=center;" parent="1" vertex="1">
                    <mxGeometry x="160" y="377" width="40" height="30" as="geometry"/>
                </mxCell>
                <mxCell id="RZuOT6L9X6EHLq7gEgHx-36" value="V&lt;sub&gt;R&lt;/sub&gt;" style="text;whiteSpace=wrap;html=1;align=center;" parent="1" vertex="1">
                    <mxGeometry x="420" y="375" width="40" height="30" as="geometry"/>
                </mxCell>
            </root>
        </mxGraphModel>
    </diagram>
</mxfile>